<svg id="paint_brush" data-name="paint brush" xmlns="http://www.w3.org/2000/svg" viewBox="0 0 33.31 78.94"><defs><style>.cls-1,.cls-2{fill:none;stroke:#020256;stroke-miterlimit:10;}.cls-1{stroke-width:2px;}</style></defs><title>paint_brush</title><path class="cls-1" d="M1.75,1H31.56a.75.75,0,0,1,.75.75V40.27a.5.5,0,0,1-.5.5H1.5a.5.5,0,0,1-.5-.5V1.75A.75.75,0,0,1,1.75,1Z"/><path class="cls-1" d="M1,26.36H1Z"/><path class="cls-1" d="M11.92,50.28l-.76,21.88a5.61,5.61,0,0,0,5.69,5.78,5.6,5.6,0,0,0,5.31-5.78L21,50.28Z"/><path class="cls-1" d="M31.81,40.77a18.34,18.34,0,0,0-6.72,4.18A19.32,19.32,0,0,0,21,50.28"/><path class="cls-1" d="M1.5,40.77c1.66.53,3.65,1.67,6.38,4.18A19.32,19.32,0,0,1,12,50.28"/><line class="cls-2" x1="1" y1="30.94" x2="11.15" y2="30.94"/><line class="cls-2" x1="15.02" y1="30.94" x2="21.59" y2="30.94"/><line class="cls-2" x1="24.21" y1="30.94" x2="26.46" y2="30.94"/><line class="cls-2" x1="16.72" y1="77.87" x2="16.72" y2="68.61"/><line class="cls-2" x1="5.02" y1="1" x2="5.02" y2="11.21"/><line class="cls-2" x1="9.02" y1="1" x2="9.02" y2="11.21"/><line class="cls-2" x1="13.02" y1="1" x2="13.02" y2="11.21"/><line class="cls-2" x1="17.02" y1="1" x2="17.02" y2="11.21"/><line class="cls-2" x1="21.02" y1="1" x2="21.02" y2="11.21"/><line class="cls-2" x1="25.02" y1="1" x2="25.02" y2="11.21"/><line class="cls-2" x1="29.02" y1="1" x2="29.02" y2="11.21"/></svg>