<svg xmlns="http://www.w3.org/2000/svg" viewBox="0 0 61.25 79.03"><defs><style>.cls-1,.cls-2{fill:none;stroke:#e5e5e5;stroke-miterlimit:10;}.cls-1{stroke-width:2px;}</style></defs><title>paint_roller</title><g id="roller"><path class="cls-1" d="M27.31,1H48.36a5.29,5.29,0,0,1,3.25,1.11l.39.31a4.78,4.78,0,0,1,1.87,3.77v8.13a4.72,4.72,0,0,1-1.1,3l-.78.94a5.23,5.23,0,0,1-4,1.86H6.91a5.23,5.23,0,0,1-4-1.86l-.78-.94a4.72,4.72,0,0,1-1.1-3V6.18A4.78,4.78,0,0,1,2.87,2.41l.39-.31A5.29,5.29,0,0,1,6.52,1H27.57"/><line class="cls-2" x1="4.02" y1="0.97" x2="4.02" y2="11.18"/><line class="cls-2" x1="7.02" y1="0.97" x2="7.02" y2="11.18"/><line class="cls-2" x1="10.02" y1="0.97" x2="10.02" y2="11.18"/><line class="cls-2" x1="13.02" y1="0.97" x2="13.02" y2="11.18"/><line class="cls-2" x1="16.02" y1="0.97" x2="16.02" y2="11.18"/><line class="cls-2" x1="19.02" y1="0.97" x2="19.02" y2="11.18"/><line class="cls-2" x1="22.02" y1="0.97" x2="22.02" y2="11.18"/><line class="cls-2" x1="25.02" y1="0.97" x2="25.02" y2="11.18"/><line class="cls-2" x1="28.02" y1="0.97" x2="28.02" y2="11.18"/><line class="cls-2" x1="31.02" y1="0.97" x2="31.02" y2="11.18"/><line class="cls-2" x1="34.02" y1="0.97" x2="34.02" y2="11.18"/><line class="cls-2" x1="37.02" y1="0.97" x2="37.02" y2="11.18"/><line class="cls-2" x1="40.02" y1="0.97" x2="40.02" y2="11.18"/><line class="cls-2" x1="43.02" y1="0.97" x2="43.02" y2="11.18"/><line class="cls-2" x1="46.02" y1="0.97" x2="46.02" y2="11.18"/><line class="cls-2" x1="49.02" y1="0.97" x2="49.02" y2="11.18"/><line class="cls-2" x1="52.02" y1="2.11" x2="52.02" y2="11.18"/><path class="cls-1" d="M53.87,10.56A5.9,5.9,0,0,1,59,12.25a5.29,5.29,0,0,1,1.25,3.13v8.74a4.41,4.41,0,0,1-.78,2.55,5.69,5.69,0,0,1-.72.84,6.47,6.47,0,0,1-4.87,1.63H32.37a4.27,4.27,0,0,0-4.94,4.5v9.75"/><path class="cls-1" d="M23.63,43.37a1,1,0,0,0-1,.93l-.65,29c-.1,3.24,2.51,4.8,5.6,4.69s5-1.6,4.88-4.69l-.68-29a1,1,0,0,0-1-.92Z"/><line class="cls-2" x1="27.5" y1="77.96" x2="27.5" y2="68.71"/></g></svg>