<svg xmlns="http://www.w3.org/2000/svg" viewBox="0 0 62.85 79.54"><defs><style>.cls-1,.cls-2{fill:none;stroke:#e5e5e5;stroke-miterlimit:10;}.cls-2{stroke-width:2px;}</style></defs><title>paint_tray</title><g id="paint_tray" data-name="paint tray"><line class="cls-1" x1="34.69" y1="74.95" x2="56.74" y2="58.91"/><line class="cls-1" x1="5.67" y1="58.91" x2="27.07" y2="74.95"/><line class="cls-1" x1="40.19" y1="74.95" x2="56.74" y2="62.91"/><line class="cls-1" x1="5.67" y1="62.91" x2="21.62" y2="74.87"/><line class="cls-1" x1="45.68" y1="74.95" x2="56.74" y2="66.91"/><line class="cls-1" x1="5.67" y1="66.91" x2="16.4" y2="74.95"/><line class="cls-1" x1="51.3" y1="74.87" x2="56.74" y2="70.91"/><line class="cls-1" x1="5.67" y1="70.91" x2="10.95" y2="74.87"/><path class="cls-2" d="M1,2.5v76H61.85V2.5A1.5,1.5,0,0,0,60.35,1H2.5A1.5,1.5,0,0,0,1,2.5Z"/><line class="cls-2" x1="5.31" y1="25.91" x2="57" y2="25.91"/><polyline class="cls-1" points="27.71 31.05 31.16 33.63 34.71 31.05"/><polyline class="cls-1" points="16.51 30.91 30.98 41.77 45.91 30.91"/><polyline class="cls-1" points="21.93 30.91 31.07 37.77 40.49 30.91"/><polyline class="cls-1" points="11.28 31.05 30.9 45.77 51.14 31.05"/><polyline class="cls-1" points="5.67 30.91 30.82 49.77 56.74 30.91"/><polyline class="cls-1" points="5.67 34.91 30.82 53.77 56.74 34.91"/><polyline class="cls-1" points="5.67 38.91 30.82 57.77 56.74 38.91"/><polyline class="cls-1" points="5.67 42.91 30.82 61.77 56.74 42.91"/><polyline class="cls-1" points="5.67 46.91 30.82 65.77 56.74 46.91"/><polyline class="cls-1" points="5.67 50.91 30.82 69.77 56.74 50.91"/><polyline class="cls-1" points="5.67 54.91 30.82 73.77 56.74 54.91"/></g></svg>