<svg xmlns="http://www.w3.org/2000/svg" viewBox="0 0 30.65 78.95"><defs><style>.cls-1,.cls-2{fill:none;stroke:#00aa30;stroke-miterlimit:10;}.cls-1{stroke-width:2px;}</style></defs><title>paint_tube</title><g id="paint_tube" data-name="paint tube"><path class="cls-1" d="M7,12.95H24.41a1.5,1.5,0,0,1,1.5,1.4l3.67,57.53H1.08L5.49,14.33A1.5,1.5,0,0,1,7,12.95Z"/><path class="cls-1" d="M1.08,71.88v4.57A1.5,1.5,0,0,0,2.58,78H28.08a1.5,1.5,0,0,0,1.5-1.5V71.88Z"/><line class="cls-2" x1="4.65" y1="71.88" x2="4.65" y2="77.95"/><line class="cls-2" x1="7.57" y1="71.88" x2="7.57" y2="77.95"/><path class="cls-2" d="M7.57,71.88v0Z"/><line class="cls-2" x1="10.57" y1="71.88" x2="10.57" y2="77.95"/><line class="cls-2" x1="13.57" y1="71.88" x2="13.57" y2="77.95"/><line class="cls-2" x1="16.57" y1="71.88" x2="16.57" y2="77.95"/><line class="cls-2" x1="19.57" y1="71.88" x2="19.57" y2="77.95"/><line class="cls-2" x1="22.57" y1="71.88" x2="22.57" y2="77.95"/><line class="cls-2" x1="25.57" y1="71.88" x2="25.57" y2="77.95"/><line class="cls-2" x1="1.72" y1="63.47" x2="12.56" y2="63.47"/><line class="cls-2" x1="29.05" y1="63.47" x2="15.33" y2="63.47"/><line class="cls-2" x1="28.8" y1="59.61" x2="21.49" y2="59.61"/><line class="cls-1" x1="1.72" y1="67.42" x2="20.18" y2="67.42"/><line class="cls-1" x1="10.57" y1="32.61" x2="20.93" y2="32.61"/><line class="cls-1" x1="12.56" y1="28.56" x2="26.59" y2="28.56"/><path class="cls-1" d="M11.05,12.95V6.17H8.54a.5.5,0,0,1-.5-.5V1.5a.5.5,0,0,1,.5-.5h14a.5.5,0,0,1,.5.5V5.67a.5.5,0,0,1-.5.5H11.71"/><line class="cls-1" x1="19.7" y1="6.17" x2="19.7" y2="12.95"/><line class="cls-2" x1="11.71" y1="0.1" x2="11.71" y2="6.17"/><line class="cls-2" x1="15.71" y1="0.1" x2="15.71" y2="6.17"/><line class="cls-2" x1="19.71" y1="0.1" x2="19.71" y2="6.17"/></g></svg>