<svg xmlns="http://www.w3.org/2000/svg" viewBox="0 0 42.68 79.36"><defs><style>.cls-1,.cls-2{fill:none;stroke:#00aa30;stroke-miterlimit:10;}.cls-1{stroke-width:2px;}</style></defs><title>paint_sponge</title><g id="paint_sponge" data-name="paint sponge"><path class="cls-1" d="M2.83,1.5V3.63H2a1,1,0,0,0-1,1V38.85a1,1,0,0,0,1,1H40.68a1,1,0,0,0,1-1V3.63H40.49V1.5A.5.5,0,0,0,40,1H3.33A.5.5,0,0,0,2.83,1.5Z"/><line class="cls-2" x1="1" y1="5.76" x2="41.68" y2="5.76"/><line class="cls-2" x1="21.34" y1="68.64" x2="21.34" y2="77.89"/><path class="cls-1" d="M17.27,39.85l-.91,32.71a5.7,5.7,0,0,0,5,5.79,5.73,5.73,0,0,0,6-5.79L26.15,39.85Z"/></g></svg>