<svg xmlns="http://www.w3.org/2000/svg" viewBox="0 0 29.44 79.85"><defs><style>.cls-1,.cls-2{fill:none;stroke:#e5e5e5;stroke-miterlimit:10;}.cls-1{stroke-width:2px;}</style></defs><title>paint_spray_can</title><g id="paint_spray_can" data-name="paint spray can"><path class="cls-1" d="M2,26.08H27.44a1,1,0,0,1,1,1V78.24c0,.55-.82.62-1.37.62H2a1,1,0,0,1-1-1V27.08A1,1,0,0,1,2,26.08Z"/><path class="cls-1" d="M3.31,26.08s-.1-7.61,2.5-7.61H23.63s2.31.29,2.7,7.61"/><path class="cls-1" d="M9.28,18.47S8,12.69,14.72,12.69s5.73,5.78,5.73,5.78"/><rect class="cls-1" x="11.4" y="1" width="6.07" height="6.87"/><line class="cls-1" x1="14.72" y1="7.87" x2="14.72" y2="12.69"/><line class="cls-1" x1="1" y1="29.46" x2="17.47" y2="29.46"/><line class="cls-1" x1="1" y1="36.38" x2="9.96" y2="36.38"/><line class="cls-1" x1="1" y1="43.31" x2="11.4" y2="43.31"/><line class="cls-1" x1="1" y1="50.54" x2="14.72" y2="50.54"/><line class="cls-1" x1="1" y1="57.47" x2="12.65" y2="57.47"/><line class="cls-1" x1="1" y1="64.37" x2="9.19" y2="64.37"/><line class="cls-1" x1="1" y1="71.53" x2="9.19" y2="71.53"/><line class="cls-2" x1="1" y1="33.01" x2="15.83" y2="33.01"/><line class="cls-2" x1="1" y1="39.94" x2="12.65" y2="39.94"/><line class="cls-2" x1="1" y1="46.78" x2="14.43" y2="46.78"/><line class="cls-2" x1="1" y1="53.91" x2="8.41" y2="53.91"/><line class="cls-2" x1="1" y1="61.03" x2="13.61" y2="61.03"/><line class="cls-2" x1="1" y1="68.32" x2="13.61" y2="68.32"/><line class="cls-2" x1="1" y1="75.09" x2="7.31" y2="75.09"/></g></svg>