<svg xmlns="http://www.w3.org/2000/svg" viewBox="0 0 51.19 72.88"><defs><style>.cls-1,.cls-2{fill:none;stroke:#e5e5e5;stroke-miterlimit:10;}.cls-1{stroke-width:2px;}</style></defs><title>paint_can</title><g id="paint_can" data-name="paint can"><path class="cls-1" d="M6.57,14a1.3,1.3,0,0,0-1.3,1.3V70.58a1.3,1.3,0,0,0,1.3,1.3H45a1.3,1.3,0,0,0,1.3-1.3V15.34A1.3,1.3,0,0,0,45,14Z"/><path class="cls-1" d="M46.29,19.71h0Z"/><line class="cls-1" x1="5.27" y1="23.54" x2="22.29" y2="23.54"/><line class="cls-1" x1="5.27" y1="30.38" x2="14.27" y2="30.38"/><line class="cls-1" x1="5.27" y1="37.38" x2="15.13" y2="37.38"/><line class="cls-1" x1="5.27" y1="44.04" x2="19.46" y2="44.04"/><line class="cls-1" x1="5.27" y1="51.21" x2="15.96" y2="51.21"/><line class="cls-1" x1="5.27" y1="58.38" x2="13.78" y2="58.38"/><line class="cls-1" x1="5.27" y1="65.38" x2="13.78" y2="65.38"/><line class="cls-2" x1="5.27" y1="33.71" x2="17.27" y2="33.71"/><line class="cls-2" x1="5.27" y1="40.54" x2="15.96" y2="40.54"/><line class="cls-2" x1="5.27" y1="47.88" x2="12.37" y2="47.88"/><line class="cls-2" x1="5.27" y1="54.71" x2="17.96" y2="54.71"/><line class="cls-2" x1="5.27" y1="61.88" x2="18.63" y2="61.88"/><line class="cls-2" x1="5.27" y1="68.71" x2="11.62" y2="68.71"/><line class="cls-1" x1="9.77" y1="14.04" x2="9.77" y2="19.71"/><line class="cls-1" x1="13.77" y1="14.04" x2="13.77" y2="19.71"/><line class="cls-1" x1="17.77" y1="14.04" x2="17.77" y2="19.71"/><line class="cls-1" x1="21.77" y1="14.04" x2="21.77" y2="19.71"/><line class="cls-1" x1="25.77" y1="14.04" x2="25.77" y2="19.71"/><line class="cls-1" x1="29.77" y1="14.04" x2="29.77" y2="19.71"/><line class="cls-1" x1="33.77" y1="14.04" x2="33.77" y2="19.71"/><line class="cls-1" x1="38.77" y1="14.04" x2="38.77" y2="19.71"/><line class="cls-1" x1="42.77" y1="14.04" x2="42.77" y2="19.71"/><path class="cls-1" d="M4.27,26.81S1,27.25,1,25.06V7.88S5.06,1.13,15.13,1.06L25.19,1V.75"/><line class="cls-2" x1="26.19" y1="1" x2="26.19" y2="0.75"/><path class="cls-1" d="M46.91,26.81s3.27.44,3.27-1.75V7.88S46.13,1.13,36.06,1.06L25,1h0"/></g></svg>