<svg id="Paintbrush" xmlns="http://www.w3.org/2000/svg" viewBox="0 0 286.89 79.03"><defs><style>.cls-1,.cls-5{fill:#fff;}.cls-1,.cls-3,.cls-4,.cls-6{stroke:#fff;stroke-miterlimit:10;}.cls-2,.cls-3{fill:#c7531a;}.cls-4{fill:#231f20;}.cls-6{fill:none;}</style></defs><title>wolletpainting-logo</title><path class="cls-1" d="M49.9,1h8.45L64,16.6c1,2.68,2.06,7,2.06,7a49.51,49.51,0,0,1,2.4-7L75.93.67h.8L84.33,16.6a49.44,49.44,0,0,1,2.4,7s1.08-4.34,2.06-7L94.38,1h7.77L88,40.18h-.8L78.5,21.46a58.48,58.48,0,0,1-2.17-5.77s-1.2,3.6-2.23,5.77L65,40.18h-.8Z"/><path class="cls-1" d="M103.51,20.43C103.51,9,112.42.5,123.61.5s20.1,8.45,20.1,19.93-8.91,19.93-20.1,19.93S103.51,31.9,103.51,20.43Zm32,0c0-7.25-4.8-12.79-11.88-12.79s-11.88,5.54-11.88,12.79,4.8,12.79,11.88,12.79S135.48,27.68,135.48,20.43Z"/><path class="cls-1" d="M150.5,1h8v31.8h17.59v7H150.5Z"/><path class="cls-1" d="M182.53,1h8v31.8h17.59v7H182.53Z"/><path class="cls-1" d="M214.56,1h25.69V8h-17.7V20.37h15.59v6.85H222.55v5.6h18.5v7H214.56Z"/><path class="cls-1" d="M257.32,8H246.25V1h30.15V8H265.32v31.8h-8Z"/><path class="cls-2" d="M80.35,52h7.22c6.79,0,10.85,3.58,10.85,9.46s-4.06,9.46-10.85,9.46H85.23v5.59H80.35Zm7.07,14.72c4.21,0,6-1.86,6-5.26s-1.86-5.21-6-5.21h-2.2V66.72Z"/><path class="cls-2" d="M104.39,76.52H99.61l11-24.8h.53l11,24.8H117.1L116,73.75H105.54Zm7.79-11.9a36.94,36.94,0,0,1-1.39-4.35,32.39,32.39,0,0,1-1.43,4.35l-2.29,5.45h7.36Z"/><path class="cls-2" d="M126.71,52h4.92V76.52h-4.92Z"/><path class="cls-2" d="M145.15,64.67a35.59,35.59,0,0,1-3.06-3.54,39.2,39.2,0,0,1,.38,4.64V76.52H138V51.72h.48l12.43,12.09A30,30,0,0,1,154,67.34s-.29-2.49-.29-4.64V52h4.44V76.85h-.48Z"/><path class="cls-2" d="M170.34,56.26H163V52h19.5v4.25h-7.31V76.52h-4.87Z"/><path class="cls-2" d="M187.49,52h4.92V76.52h-4.92Z"/><path class="cls-2" d="M205.94,64.67a35.59,35.59,0,0,1-3.06-3.54,39.2,39.2,0,0,1,.38,4.64V76.52h-4.44V51.72h.48l12.43,12.09a30.1,30.1,0,0,1,3.06,3.54s-.29-2.49-.29-4.64V52h4.44V76.85h-.48Z"/><path class="cls-2" d="M224.29,64.28A12.36,12.36,0,0,1,237,51.62c4.49,0,7.22,1.53,9.13,3.54L243,58.41a7.39,7.39,0,0,0-6-2.48c-4.78,0-7.79,3.68-7.79,8.36s2.68,8.51,8.27,8.51a9.81,9.81,0,0,0,5.16-1.34V67.73h-5.83v-4h10.27V74.13a16.19,16.19,0,0,1-9.61,2.82C229.54,76.95,224.29,71.6,224.29,64.28Z"/><path class="cls-3" d="M20,57.05H39.17V42.36c-.83-1.69-5.86-3-5.86-3l-9.55-3.22c-1.8-1.07-1.55-6-1.34-6.93.83-3.92,5-3.83,5-16.83S20,.61,20,.61h-.37S12.29-.64,12.29,12.36s4.13,12.91,5,16.83c.2,1,.46,5.86-1.34,6.93L6.36,39.34s-5,1.33-5.86,3V57.05H20Z"/><path class="cls-4" d="M37.37,57.05V78.16c0,.62-6.08,0-6.68,0s-.75-2.32-1.35-2.49-.22,2.49-1.13,2.49H24.3c-.68,0-.25-.62-.75-1.87s-3.75-1.34-4.35-1,.07,2.67-.75,2.85a6.08,6.08,0,0,1-1.8,0c-.6,0-.53-2.58-1-2.23s-.22,2.14-1,2.23-3.23,0-4.06,0-.11-4.89-.38-5.88a1,1,0,0,0-1.58.09c-.45.53-.83,5.43-1.35,5.79s-5.26.62-5.26,0V57.05Z"/><path class="cls-5" d="M19.72,6s-3,1.16-3,3.92,1.13,3.47,3,3.47,2.7-1.07,2.7-3.69S21.45,6,19.72,6Z"/><line class="cls-6" x1="0.5" y1="54.64" x2="39.17" y2="54.64"/></svg>